<?xml version="1.0" encoding="UTF-8"?>
<svg viewBox="0 0 30 30" xmlns="http://www.w3.org/2000/svg">
<path d="m4 20.833v-11.666c0-0.35124 0.18427-0.67672 0.48545-0.85746l10-6.0009c0.3168-0.19006 0.7124-0.19006 1.0292 0l10 6.0009c0.3011 0.18074 0.4854 0.50622 0.4854 0.85746v11.666c0 0.3513-0.1843 0.6767-0.4854 0.8575l-10 6.0009c-0.3168 0.1901-0.7124 0.1901-1.0292 0l-10-6.0009c-0.30117-0.1808-0.48544-0.5062-0.48544-0.8575z" fill="currentColor" stroke="currentColor"/>
<path d="m13.163 19.5-4.275-4.275 1.0688-1.0687 3.2062 3.2062 6.8812-6.8812 1.0688 1.0687-7.95 7.95z" fill="#fff"/>
</svg>
