<?xml version="1.0" encoding="UTF-8"?>
<svg fill="none" viewBox="0 0 33 33" xmlns="http://www.w3.org/2000/svg">
<path d="m16.5 30.833c-7.9066 0-14.333-6.4267-14.333-14.333 0-7.9067 6.4267-14.333 14.333-14.333 7.9067 0 14.333 6.4267 14.333 14.333 0 7.9066-6.4267 14.333-14.333 14.333zm0-26.667c-6.8 0-12.333 5.5333-12.333 12.333 0 6.8 5.5333 12.333 12.333 12.333 6.8 0 12.333-5.5333 12.333-12.333 0-6.8-5.5334-12.333-12.333-12.333z" fill="#D9DBE3"/>
<path d="m12.727 21.273c-0.2533 0-0.5066-0.0933-0.7066-0.2933-0.3867-0.3867-0.3867-1.0267 0-1.4134l7.5466-7.5466c0.3867-0.3867 1.0267-0.3867 1.4134 0 0.3866 0.3866 0.3866 1.0266 0 1.4133l-7.5467 7.5467c-0.1867 0.2-0.4533 0.2933-0.7067 0.2933z" fill="currentColor"/>
<path d="m20.273 21.273c-0.2533 0-0.5067-0.0933-0.7067-0.2933l-7.5466-7.5467c-0.3867-0.3867-0.3867-1.0267 0-1.4133 0.3866-0.3867 1.0266-0.3867 1.4133 0l7.5467 7.5466c0.3866 0.3867 0.3866 1.0267 0 1.4134-0.2 0.2-0.4534 0.2933-0.7067 0.2933z" fill="currentColor"/>
</svg>
