<?xml version="1.0" encoding="UTF-8"?>
<svg fill="none" viewBox="0 0 36 31" xmlns="http://www.w3.org/2000/svg">
<g fill="currentColor">
<path d="m18.896 7.523-0.0925-0.02759c-0.2742-0.08178-0.4307-0.37014-0.3488-0.64467v-8e-5l0.1438 0.04287 0.2975 0.62947zl0.0071-0.00816m-0.0071 0.00816 0.0071-0.00816m0 0c0.2422 0.02316 0.4738-0.12764 0.5452-0.36858l-0.5452 0.36858z" stroke="#F9FFF9" stroke-width=".3"/>
<path d="m29.053 21.366h-2.2104c-0.2034 0-0.3684-0.165-0.3684-0.3684s0.165-0.3684 0.3684-0.3684h2.2104c3.0469 0 5.526-2.4791 5.526-5.526s-2.4791-5.526-5.526-5.526h-0.0531c-0.1069 0-0.2085-0.04631-0.2785-0.12709-0.0699-0.08079-0.1015-0.18789-0.0863-0.29368 0.0329-0.22945 0.0495-0.45997 0.0495-0.68442 0-2.6406-2.1486-4.7892-4.7892-4.7892-1.0274 0-2.007 0.32103-2.8333 0.92863-0.1816 0.13341-0.4395 0.07421-0.5445-0.12552-2.3401-4.4561-8.4523-5.0545-11.621-1.1781-1.3349 1.6331-1.8594 3.7574-1.4391 5.8279 0.04632 0.22867-0.12868 0.44182-0.36103 0.44182h-0.14763c-3.0469 0-5.526 2.4791-5.526 5.5261 0 3.0469 2.4791 5.526 5.526 5.526h2.2104c0.20341 0 0.36841 0.165 0.36841 0.3684s-0.16499 0.3684-0.36841 0.3684h-2.2104c-3.4533 0-6.2629-2.8096-6.2629-6.2629 0-3.3564 2.654-6.1047 5.9737-6.2562-0.31182-2.1481 0.28447-4.3148 1.6665-6.0057 3.3927-4.1506 9.8945-3.6853 12.643 0.94284 0.8769-0.54971 1.8802-0.83809 2.9262-0.83809 3.1993 0 5.7345 2.723 5.5127 5.9044 3.289 0.18446 5.9078 2.9183 5.9078 6.2526 0 3.4535-2.8096 6.2628-6.2629 6.2628h2e-4z"/>
<path d="m8.5912 20.79c0 5.1613 4.1989 9.3601 9.3602 9.3601s9.3601-4.1989 9.3601-9.3601c0-5.1614-4.1988-9.3602-9.3601-9.3602-5.1614 0-9.3602 4.1989-9.3602 9.3602zm1.037 0c0-4.5892 3.7339-8.3232 8.3232-8.3232 4.5891 0 8.3231 3.7339 8.3231 8.3232 0 4.5891-3.734 8.3231-8.3231 8.3231-4.5892 0-8.3232-3.7339-8.3232-8.3231z" stroke="#F9FFF9" stroke-width=".3"/>
<g stroke="currentColor" stroke-width=".3">
<path d="m17.701 24.498c0 0.2318 0.1879 0.4197 0.4197 0.4197 0.2317 0 0.4197-0.1877 0.4197-0.4197v-7.0126c0-0.2317-0.1879-0.4197-0.4197-0.4197s-0.4197 0.188-0.4197 0.4197v7.0126z"/>
<path d="m18.12 18.079-1.8608 1.8608 1.8608-1.8608zm0 0 1.8609 1.8609c0.0819 0.0818 0.1897 0.1229 0.2968 0.1229l-2.1577-1.9838zm-0.2968-0.8904c0.1639-0.164 0.4297-0.1639 0.5936 0l2.1577 2.1577c0.1639 0.1639 0.1639 0.4294 2e-4 0.5934l-2.7515-2.7511zm0 0s0 1e-4 -1e-4 1e-4l1e-4 -1e-4z"/>
</g>
</g>
</svg>
